PathFileType	4	(X/Y/Z)	/Users/visionmauri/2_5_3_f_1_Sports2D/2_5_3_f_1_Sports2D_m_person00.trc
DataRate	CameraRate	NumFrames	NumMarkers	Units	OrigDataRate	OrigDataStartFrame	OrigNumFrames
30.0	30.0	9	22	m	30.0	298	341
Frame#	Time	Hip			RHip			RKnee			RAnkle			RBigToe			RSmallToe			RHeel			LHip			LKnee			LAnkle			LBigToe			LSmallToe			LHeel			Neck			Head			Nose			RShoulder			RElbow			RWrist			LShoulder			LElbow			LWrist			
		X1	Y1	Z1	X2	Y2	Z2	X3	Y3	Z3	X4	Y4	Z4	X5	Y5	Z5	X6	Y6	Z6	X7	Y7	Z7	X8	Y8	Z8	X9	Y9	Z9	X10	Y10	Z10	X11	Y11	Z11	X12	Y12	Z12	X13	Y13	Z13	X14	Y14	Z14	X15	Y15	Z15	X16	Y16	Z16	X17	Y17	Z17	X18	Y18	Z18	X19	Y19	Z19	X20	Y20	Z20	X21	Y21	Z21	X22	Y22	Z22
298	9.962549019607843	0.9376751687138665	0.7972688669744388	0.0301	0.82963562731835	0.7539714464868272	0.0301	0.8436535193848359	0.33752906392669463	0.129	0.8809838566889402	-0.06921096355506329	0.023	0.8380897049456769	-0.21473806862905517	0.2179	0.7806741147208374	-0.19580591223028765	0.1804	0.9179229627148515	-0.13645194938616698	-0.0119	1.0540851810262497	0.7575145990984538	0.0301	1.0636223315109739	0.3491606967109975	0.129	1.0673311898853008	-0.10712785169190854	0.023	1.0402980569321392	-0.24963013898920802	0.2179	1.1169891173436022	-0.24808114358214386	0.1804	1.041434417912628	-0.1814195464484321	-0.0119	0.9243645172525653	1.4878818757582193	0.0008	0.9184264101367826	1.776661305907082	0.0655	0.8545652614252546	1.5951722919709368	0.1076	0.7166226321810878	1.4082667128331277	-0.01275	0.6291357236383975	1.1197520348148997	0.0702	0.5548851300304788	0.902159057004869	0.1076	1.1331179213001787	1.3962793648814151	-0.01275	1.2737893951938997	1.0981179203887401	0.0702	1.38891498378778	0.8774120086091161	0.1076
299	9.995980392156863	0.9393843715089055	0.8013967534415628	0.0301	0.8297744477148637	0.7557783539846867	0.0301	0.8433947418241805	0.3399168311784635	0.129	0.8793546556236195	-0.06786532254039053	0.023	0.8378554068118356	-0.2134688158010358	0.2179	0.7793726693445132	-0.19419241154328518	0.1804	0.920205391739849	-0.1351277167047273	-0.0119	1.0544549869416504	0.7592006389372458	0.0301	1.064107969847291	0.34816915287241257	0.129	1.0685111672560994	-0.10963708034913273	0.023	1.0409956364580453	-0.2459040921547974	0.2179	1.1150681774870839	-0.2486441692009041	0.1804	1.0437859839211872	-0.1817888447096726	-0.0119	0.9243504199030623	1.4878100274634583	0.0008	0.921390246764946	1.7764309151207496	0.0655	0.8703173973943253	1.5970937308622324	0.1076	0.7163809821056725	1.4071407192498293	-0.01275	0.6282316306299633	1.1199304774853063	0.0702	0.5526741029368382	0.9059391404403955	0.1076	1.1332892279129136	1.3973918550545663	-0.01275	1.2730843081081995	1.0985332595334714	0.0702	1.3902816599591592	0.8773262581427738	0.1076
300	10.029411764705882	0.9416223840193804	0.8017503584601134	0.0301	0.8315460062969555	0.7549949274659787	0.0301	0.8439671053229612	0.3388455509957953	0.129	0.8786037077619322	-0.06660025332329339	0.023	0.8368889664779259	-0.21119907046014175	0.2179	0.7793269004712814	-0.19184653336084226	0.1804	0.920548072213489	-0.1336967759611783	-0.0119	1.0549394918876775	0.7570947721910647	0.0301	1.0645764576411851	0.3455104801045549	0.129	1.0681642480552298	-0.11210644466529146	0.023	1.0419534251205533	-0.245584815763347	0.2179	1.113735343747873	-0.25115381784181784	0.1804	1.0442204402570046	-0.18167130894513808	-0.0119	0.9250498879249792	1.4867995355354688	0.0008	0.9234413046117648	1.7749302378792873	0.0655	0.8853682976423332	1.5979216651112398	0.1076	0.7168703089722008	1.4045319524419084	-0.01275	0.6272160842887787	1.1191546721458965	0.0702	0.5526172337874447	0.9080392620282881	0.1076	1.1334360141878272	1.3968182054760028	-0.01275	1.273014989828115	1.0989482428285053	0.0702	1.3948046384591724	0.8753101316111227	0.1076
301	10.062843137254902	0.94232863820032	0.7983617958574716	0.0301	0.8340255025763194	0.7527333918783099	0.0301	0.8452842560731303	0.33619655118569597	0.129	0.8796844103733518	-0.06692401816703691	0.023	0.8363404872949964	-0.2100418790136321	0.2179	0.7816953298876191	-0.19111077362477033	0.1804	0.9209073644537368	-0.13404570150400152	-0.0119	1.054919737798861	0.7532354725698932	0.0301	1.0643413577578944	0.34334895304609964	0.129	1.0651114699664033	-0.11242324119367426	0.023	1.04061994457386	-0.24714933294984542	0.2179	1.112579631324002	-0.25193829417222263	0.1804	1.0418892657907612	-0.1802316215587458	-0.0119	0.9265157006126951	1.4843476170646743	0.0008	0.925231477812759	1.772268994043416	0.0655	0.8943622035417278	1.5963314020373613	0.1076	0.7187571723078997	1.4015402509826438	-0.01275	0.6271978890675792	1.117536802391075	0.0702	0.5533137323767374	0.9073549433069177	0.1076	1.1353143176422376	1.393880911374124	-0.01275	1.275431875451135	1.0983445503870803	0.0702	1.397459920641113	0.8733061693315654	0.1076
302	10.096274509803921	0.941088881145366	0.7941905110055726	0.0301	0.8354876255990032	0.7514590277838634	0.0301	0.8461626871427098	0.3335461891023411	0.129	0.8803135833842036	-0.067382949421368	0.023	0.8362358927714695	-0.2095153040254586	0.2179	0.7836911589014172	-0.1909060723136462	0.1804	0.921654586569705	-0.13500091764582545	-0.0119	1.0544849886823018	0.7515185042475013	0.0301	1.0641108915654869	0.3428755972646209	0.129	1.0609342546219573	-0.11291526577529856	0.023	1.0365345653680753	-0.2497627961932093	0.2179	1.1102250970590473	-0.2523129503515666	0.1804	1.0386558041395355	-0.18038281807780626	-0.0119	0.9287848490445422	1.4817495885853713	0.0008	0.9272111758126946	1.769480106462849	0.0655	0.8975085434943121	1.594039373846891	0.1076	0.7227762190117191	1.4003968281012498	-0.01275	0.6285832069117528	1.1148422051694835	0.0702	0.5545235132077815	0.9054896496056818	0.1076	1.138544709402242	1.3905040867218676	-0.01275	1.2801695861406097	1.0963397872887863	0.0702	1.39957930586194	0.8724510085386014	0.1076
303	10.129705882352942	0.9389779240189177	0.7919662066492972	0.0301	0.8351815042857319	0.7515692215362352	0.0301	0.8462580616396749	0.3314637055573835	0.129	0.8790947818345227	-0.06704821923324628	0.023	0.8369100217575878	-0.20858912080019965	0.2179	0.7840604826459746	-0.18966301102647465	0.1804	0.9219615705575768	-0.13558679350628217	-0.0119	1.0541582067200408	0.75232647064957	0.0301	1.0639932409209167	0.3433130097741873	0.129	1.0580992921432784	-0.11628548470797115	0.023	1.03241894727182	-0.25454931146740994	0.2179	1.107201800093327	-0.2559731279844599	0.1804	1.036310726208047	-0.18433404409440976	-0.0119	0.9320061308086682	1.4799405935175012	0.0008	0.9299824473608131	1.767463871804237	0.0655	0.9013871868694573	1.592122357154448	0.1076	0.7275811874865693	1.400604626735772	-0.01275	0.6300044620472254	1.1115797481091274	0.0702	0.5571495759174868	0.9040670649530741	0.1076	1.141631305677842	1.388513984246211	-0.01275	1.285408379599377	1.092943672720322	0.0702	1.404851075613223	0.8709233054195888	0.1076
304	10.163137254901962	0.9375171881049598	0.7917413384458621	0.0301	0.8338611027041847	0.7522915712332311	0.0301	0.8459721443760999	0.32992073739280703	0.129	0.8775804222955749	-0.06746939936854723	0.023	0.839048127868456	-0.20804480463547226	0.2179	0.784199084392701	-0.18853760618293197	0.1804	0.9212152489987236	-0.13658932698416415	-0.0119	1.054469477062202	0.7529585614654545	0.0301	1.063377020896463	0.3432786783544359	0.129	1.056732935481389	-0.12165545236856187	0.023	1.0305380989071116	-0.2596435386765775	0.2179	1.1062179427041843	-0.26123871099086904	0.1804	1.033557288067482	-0.18946539341812893	-0.0119	0.9357340616354061	1.4780365489070502	0.0008	0.9331522522615656	1.7668312894847449	0.0655	0.906423385801582	1.5908902898984574	0.1076	0.7302050848394288	1.3994662259261896	-0.01275	0.6308504664580593	1.1091321762412278	0.0702	0.5609485576529699	0.9047205196739484	0.1076	1.1453025570412971	1.3866073316177343	-0.01275	1.2903048524227263	1.0884360112945664	0.0702	1.4110382992209891	0.867291133926545	0.1076
305	10.196568627450981	0.9371498995915637	0.7911083938437358	0.0301	0.8320024369126606	0.7526365993268682	0.0301	0.8450549701702113	0.3283495606325654	0.129	0.8772791044909843	-0.06935345743997709	0.023	0.8417660704204982	-0.20844160084463398	0.2179	0.7847261561839773	-0.1884443961546806	0.1804	0.9202006745268128	-0.13808388072307082	-0.0119	1.0548799772783357	0.7515653472100977	0.0301	1.0620930488712428	0.3410994470818034	0.129	1.0552657416588909	-0.1271393855733799	0.023	1.0302414807395959	-0.26254288279169957	0.2179	1.107377909006374	-0.26460743572543177	0.1804	1.0293873413163148	-0.1942709244482457	-0.0119	0.9389672070895367	1.4759263768300546	0.0008	0.9369590536692612	1.7671753340259941	0.0655	0.9098545795632067	1.5896811900055379	0.1076	0.7305025684752874	1.3968612172381354	-0.01275	0.6324105236586872	1.1082911961822224	0.0702	0.5639117457769669	0.9070627991094301	0.1076	1.1506061842266666	1.383233594933217	-0.01275	1.2951546349347485	1.0844237451117882	0.0702	1.4146178969150933	0.863287609950151	0.1076
306	10.23	0.9372983148774875	0.788305574563793	0.0301	0.8303537942331974	0.7517245914683812	0.0301	0.8436093125228865	0.32659634556215383	0.129	0.8777084464907197	-0.07133911231233628	0.023	0.8431307163141237	-0.20886915841516832	0.2179	0.7847346373676827	-0.18807804199523617	0.1804	0.9198428598406673	-0.1392876630681915	-0.0119	1.054366210249586	0.7485278334527621	0.0301	1.0605170999326863	0.33526330813284627	0.129	1.0532604339579505	-0.13334111488049824	0.023	1.0299380330806618	-0.26683870708433827	0.2179	1.106732239919974	-0.2684146469468008	0.1804	1.0261879113554402	-0.20280784311278835	-0.0119	0.9417792257660775	1.474961998510869	0.0008	0.9426917201310274	1.7672514167914826	0.0655	0.9152651001421883	1.587426985289435	0.1076	0.7316876750456704	1.3954743964688812	-0.01275	0.6357037983658634	1.1084008131468817	0.0702	0.5652041229834314	0.9073070492249341	0.1076	1.1561014207614353	1.379841021105159	-0.01275	1.299730435638614	1.082146554462049	0.0702	1.417561185290452	0.860634494744106	0.1076
